<svg width="130" height="130" viewBox="0 0 130 130" fill="none" xmlns="http://www.w3.org/2000/svg">
<g id="facebook">
<path id="Vector" d="M65 0C52.1442 0 39.5772 3.81218 28.888 10.9545C18.1988 18.0968 9.86754 28.2484 4.94784 40.1256C0.0281477 52.0028 -1.25905 65.0721 1.24899 77.6809C3.75703 90.2896 9.9477 101.872 19.0381 110.962C28.1285 120.052 39.7104 126.243 52.3192 128.751C64.9279 131.259 77.9973 129.972 89.8745 125.052C101.752 120.132 111.903 111.801 119.046 101.112C126.188 90.4229 130 77.8558 130 65C130 56.4641 128.319 48.0117 125.052 40.1256C121.786 32.2394 116.998 25.0739 110.962 19.0381C104.926 13.0022 97.7606 8.21439 89.8745 4.94783C81.9883 1.68127 73.536 0 65 0V0ZM85.4953 39.3308H77.1747C71.4939 39.3308 70.4097 42.018 70.4097 45.9779V54.3929H83.9397L82.1717 67.5928H70.4096V103.421H55.324V67.5928H44.5048V54.3929H55.324V44.6344C55.324 32.943 63.4327 26.5788 73.8748 26.5788C78.8719 26.5788 84.2462 26.9559 85.4953 27.1209L85.4953 39.3308Z" fill="#3F3D56"/>
</g>
</svg>
