<svg width="133" height="133" viewBox="0 0 133 133" fill="none" xmlns="http://www.w3.org/2000/svg">
<g id="instagram">
<path id="Vector" d="M66.7752 76.6106C72.9248 76.6106 77.9101 71.6254 77.9101 65.4757C77.9101 59.3261 72.9248 54.3408 66.7752 54.3408C60.6256 54.3408 55.6403 59.3261 55.6403 65.4757C55.6403 71.6254 60.6256 76.6106 66.7752 76.6106Z" fill="#3F3D56"/>
<path id="Vector_2" d="M80.694 37.6385H52.8566C49.1685 37.6492 45.6345 39.1191 43.0266 41.727C40.4187 44.335 38.9488 47.869 38.938 51.5571V79.3944C38.9488 83.0825 40.4187 86.6165 43.0266 89.2244C45.6345 91.8323 49.1685 93.3022 52.8566 93.313H80.694C84.3821 93.3022 87.916 91.8322 90.5239 89.2243C93.1318 86.6164 94.6017 83.0825 94.6125 79.3944V51.5571C94.6017 47.869 93.1318 44.335 90.5239 41.7271C87.916 39.1192 84.3821 37.6493 80.694 37.6385H80.694ZM66.7752 82.1781C63.4718 82.1781 60.2426 81.1985 57.4959 79.3632C54.7492 77.5279 52.6085 74.9194 51.3443 71.8674C50.0801 68.8155 49.7494 65.4572 50.3939 62.2172C51.0383 58.9773 52.6291 56.0012 54.965 53.6654C57.3008 51.3295 60.2769 49.7388 63.5168 49.0943C66.7568 48.4498 70.115 48.7806 73.167 50.0448C76.2189 51.3089 78.8275 53.4497 80.6628 56.1964C82.4981 58.9431 83.4777 62.1723 83.4777 65.4757C83.4765 69.9051 81.7164 74.1528 78.5844 77.2848C75.4523 80.4169 71.2046 82.177 66.7752 82.1781V82.1781ZM84.8694 51.5571C84.0435 51.5571 83.2362 51.3122 82.5496 50.8533C81.8629 50.3945 81.3278 49.7424 81.0117 48.9794C80.6957 48.2164 80.613 47.3768 80.7741 46.5668C80.9352 45.7569 81.3329 45.0128 81.9169 44.4289C82.5008 43.8449 83.2449 43.4472 84.0549 43.2861C84.8649 43.125 85.7044 43.2077 86.4674 43.5238C87.2304 43.8398 87.8826 44.375 88.3414 45.0617C88.8002 45.7484 89.0451 46.5557 89.045 47.3815C89.0464 47.9303 88.9393 48.4739 88.7299 48.9811C88.5205 49.4883 88.213 49.9491 87.825 50.3371C87.437 50.7251 86.9761 51.0326 86.4689 51.242C85.9617 51.4514 85.4181 51.5584 84.8694 51.5571V51.5571Z" fill="#3F3D56"/>
<path id="Vector_3" d="M66.0606 0C52.9951 0 40.2229 3.8744 29.3593 11.1332C18.4957 18.3921 10.0286 28.7093 5.02858 40.7803C0.028616 52.8513 -1.27959 66.1339 1.26937 78.9484C3.81833 91.7629 10.11 103.534 19.3487 112.772C28.5874 122.011 40.3583 128.303 53.1728 130.852C65.9873 133.401 79.2699 132.093 91.3409 127.093C103.412 122.093 113.729 113.625 120.988 102.762C128.247 91.8983 132.121 79.1261 132.121 66.0606C132.121 57.3854 130.412 48.7951 127.093 40.7803C123.773 32.7655 118.907 25.483 112.772 19.3487C106.638 13.2144 99.3557 8.34842 91.3409 5.02856C83.3261 1.70871 74.7358 -1.31322e-06 66.0606 0V0ZM100.18 79.3943C100.165 84.5577 98.107 89.5053 94.456 93.1564C90.8049 96.8075 85.8574 98.8653 80.694 98.8804H52.8566C47.6933 98.8653 42.7457 96.8075 39.0946 93.1564C35.4435 89.5053 33.3857 84.5577 33.3706 79.3943V51.5571C33.3857 46.3937 35.4435 41.4461 39.0946 37.795C42.7457 34.1439 47.6933 32.0861 52.8566 32.071H80.6941C85.8574 32.0861 90.805 34.144 94.456 37.795C98.1071 41.4461 100.165 46.3937 100.18 51.5571L100.18 79.3943Z" fill="#3F3D56"/>
</g>
</svg>
