<svg width="133" height="133" viewBox="0 0 133 133" fill="none" xmlns="http://www.w3.org/2000/svg">
<g id="linkdin">
<path id="Vector" d="M98.8402 28.0072H34.5786C33.7524 27.9678 32.9265 28.0898 32.1482 28.3662C31.37 28.6426 30.6548 29.068 30.0435 29.6179C29.4323 30.1678 28.9371 30.8315 28.5864 31.5708C28.2357 32.3101 28.0365 33.1105 28 33.926V97.4874C28.0444 99.1975 28.7511 100.826 29.9748 102.037C31.1985 103.249 32.8461 103.951 34.5786 104H98.8202C100.511 103.935 102.107 103.215 103.264 101.995C104.42 100.776 105.043 99.1567 104.998 97.4874V33.926C105.011 33.1316 104.86 32.3428 104.553 31.6082C104.246 30.8737 103.791 30.2088 103.214 29.6544C102.637 29.1001 101.952 28.668 101.2 28.3847C100.447 28.1014 99.6445 27.973 98.8402 28.0072ZM51.8674 91.3511H40.8362V57.5017H51.8674V91.3511ZM46.7329 52.355H46.6526C45.0655 52.3445 43.5472 51.7136 42.4306 50.6004C41.314 49.4872 40.6899 47.9826 40.6952 46.4161C40.7005 44.8497 41.3347 43.3492 42.4589 42.2434C43.583 41.1376 45.1055 40.5167 46.6927 40.5167C48.2798 40.5167 49.8023 41.1376 50.9264 42.2434C52.0506 43.3492 52.6848 44.8497 52.6901 46.4161C52.6954 47.9826 52.0714 49.4872 50.9547 50.6004C49.8381 51.7136 48.32 52.3445 46.7329 52.355ZM92.1814 91.3511H81.1502V72.8428C81.1502 68.4088 79.5455 65.3801 75.5542 65.3801C74.3062 65.3905 73.0921 65.7825 72.0792 66.5022C71.0663 67.2218 70.3043 68.2337 69.8982 69.3985C69.6047 70.2583 69.4756 71.1644 69.5172 72.0708V91.3511H58.486V57.5017H69.5172V62.2129C70.5213 60.498 71.9751 59.0819 73.7258 58.1135C75.4764 57.1451 77.4591 56.6602 79.4653 56.7099C86.7057 56.7099 92.1812 61.4211 92.1812 71.576L92.1814 91.3511Z" fill="#3F3D56"/>
<path id="Vector_2" d="M66.0606 0C52.9951 0 40.2229 3.8744 29.3593 11.1332C18.4957 18.3921 10.0286 28.7093 5.02858 40.7803C0.028616 52.8513 -1.27959 66.1339 1.26937 78.9484C3.81833 91.7629 10.11 103.534 19.3487 112.772C28.5874 122.011 40.3583 128.303 53.1728 130.852C65.9873 133.401 79.2699 132.093 91.3409 127.093C103.412 122.093 113.729 113.625 120.988 102.762C128.247 91.8983 132.121 79.1261 132.121 66.0606C132.121 57.3854 130.412 48.7951 127.093 40.7803C123.773 32.7655 118.907 25.483 112.772 19.3487C106.638 13.2144 99.3557 8.34842 91.3409 5.02856C83.3261 1.70871 74.7358 -1.31322e-06 66.0606 0V0ZM100.18 79.3943C100.165 84.5577 98.107 89.5053 94.456 93.1564C90.8049 96.8075 85.8574 98.8653 80.694 98.8804H52.8566C47.6933 98.8653 42.7457 96.8075 39.0946 93.1564C35.4435 89.5053 33.3857 84.5577 33.3706 79.3943V51.5571C33.3857 46.3937 35.4435 41.4461 39.0946 37.795C42.7457 34.1439 47.6933 32.0861 52.8566 32.071H80.6941C85.8574 32.0861 90.805 34.144 94.456 37.795C98.1071 41.4461 100.165 46.3937 100.18 51.5571L100.18 79.3943Z" fill="#3F3D56"/>
</g>
</svg>
