<svg width="126" height="126" viewBox="0 0 126 126" fill="none" xmlns="http://www.w3.org/2000/svg">
<g id="twitter">
<path id="Vector" d="M62.6634 0C50.2698 0 38.1545 3.67515 27.8495 10.5607C17.5446 17.4462 9.51285 27.2329 4.77 38.6832C0.0271578 50.1334 -1.2138 62.7329 1.20409 74.8885C3.62197 87.044 9.59011 98.2095 18.3537 106.973C27.1174 115.737 38.2829 121.705 50.4384 124.123C62.5939 126.541 75.1935 125.3 86.6437 120.557C98.094 115.814 107.881 107.782 114.766 97.4774C121.652 87.1724 125.327 75.0571 125.327 62.6634C125.327 54.4343 123.706 46.2858 120.557 38.6832C117.408 31.0805 112.792 24.1725 106.973 18.3537C101.154 12.5349 94.2464 7.91909 86.6437 4.76996C79.041 1.62083 70.8925 -1.31322e-06 62.6634 0V0ZM93.6324 46.7704C93.6654 47.4471 93.6819 48.1402 93.6819 48.8335C93.6819 69.9745 77.6075 94.3503 48.1816 94.3503C39.4995 94.3694 31.0001 91.8574 23.7233 87.1217C24.9884 87.2737 26.2614 87.3508 27.5356 87.3527C34.7352 87.3656 41.7291 84.9528 47.3894 80.5037C44.0526 80.4409 40.8188 79.3365 38.1407 77.3449C35.4626 75.3534 33.4742 72.5744 32.4537 69.3968C33.4424 69.5961 34.4487 69.6956 35.4573 69.6939C36.8787 69.6936 38.2939 69.505 39.6658 69.1328C36.0471 68.4013 32.793 66.4403 30.4556 63.5825C28.1183 60.7248 26.8417 57.1463 26.8425 53.4544V53.2564C29.0637 54.5048 31.5568 55.1904 34.104 55.2533C30.7145 52.9937 28.3137 49.527 27.3907 45.5593C26.4678 41.5916 27.0921 37.4212 29.1364 33.8976C33.1437 38.843 38.1486 42.888 43.8246 45.7686C49.5006 48.6493 55.7202 50.3009 62.0776 50.6158C61.7974 49.4205 61.6589 48.1962 61.665 46.9685C61.6613 43.7617 62.6229 40.628 64.4247 37.9752C66.2264 35.3224 68.7849 33.2734 71.7673 32.0947C74.7496 30.916 78.0176 30.6622 81.1462 31.3664C84.2747 32.0706 87.1189 33.7002 89.3085 36.0431C92.8895 35.3432 96.323 34.0312 99.4582 32.1648C98.2657 35.8688 95.767 39.0129 92.4277 41.0108C95.5943 40.6267 98.6865 39.7758 101.604 38.4857C99.4596 41.6987 96.7604 44.5041 93.6324 46.7704V46.7704Z" fill="#3F3D56"/>
</g>
</svg>
